<svg width="72" height="72" viewBox="0 0 72 72" fill="none" xmlns="http://www.w3.org/2000/svg">
<path d="M36 8C24.954 8 16 16.954 16 28C16 34.2 18.8 39.76 23.2 43.6V52H48.8V43.6C53.2 39.76 56 34.2 56 28C56 16.954 47.046 8 36 8Z" stroke="white" stroke-width="4" stroke-linejoin="round"/>
<path d="M27.2 52V56C27.2 57.6 28.4 58.8 29.2 58.8H42.8C44.4 58.8 45.6 57.6 45.6 56V52" stroke="white" stroke-width="4"/>
<line x1="28" y1="36" x2="44" y2="36" stroke="white" stroke-width="4" stroke-linecap="round"/>
<line x1="32" y1="42" x2="40" y2="42" stroke="white" stroke-width="4" stroke-linecap="round"/>
<line x1="36" y1="24" x2="36" y2="30" stroke="white" stroke-width="4" stroke-linecap="round"/>
<line x1="29" y1="27" x2="33" y2="31" stroke="white" stroke-width="3" stroke-linecap="round"/>
<line x1="43" y1="27" x2="39" y2="31" stroke="white" stroke-width="3" stroke-linecap="round"/>
</svg>
